<svg xmlns="http://www.w3.org/2000/svg" version="1.1" xmlns:xlink="http://www.w3.org/1999/xlink" xmlns:svgjs="http://svgjs.dev/svgjs" width="1500" height="1500" viewBox="0 0 1500 1500"><rect width="1500" height="1500" fill="#562061"></rect><g transform="matrix(0.6666666666666666,0,0,0.6666666666666666,249.39393939393938,438.5856950067477)"><svg viewBox="0 0 396 247" data-background-color="#562061" preserveAspectRatio="xMidYMid meet" height="935" width="1500" xmlns="http://www.w3.org/2000/svg" xmlns:xlink="http://www.w3.org/1999/xlink"><g id="tight-bounds" transform="matrix(1,0,0,1,0.2400000000000091,-0.09999999999999432)"><svg viewBox="0 0 395.52 247.2" height="247.2" width="395.52"><g><svg></svg></g><g><svg viewBox="0 0 395.52 247.2" height="247.2" width="395.52"><g transform="matrix(1,0,0,1,75.54432,50.87913480497926)"><svg viewBox="0 0 244.43135999999998 145.44173039004147" height="145.44173039004147" width="244.43135999999998"><g><svg viewBox="0 0 244.43135999999998 145.44173039004147" height="145.44173039004147" width="244.43135999999998"><g><svg viewBox="0 0 244.43135999999998 145.44173039004147" height="145.44173039004147" width="244.43135999999998"><g><svg viewBox="0 0 244.43135999999998 145.44173039004147" height="145.44173039004147" width="244.43135999999998"><g id="textblocktransform"><svg viewBox="0 0 244.43135999999998 145.44173039004147" height="145.44173039004147" width="244.43135999999998" id="textblock"><g><svg viewBox="0 0 244.43135999999998 145.44173039004147" height="145.44173039004147" width="244.43135999999998"><g transform="matrix(1,0,0,1,0,0)"><svg width="244.43135999999998" viewBox="2.86 -35.01 58.83 35.01" height="145.44173039004147" data-palette-color="#ffffff"><path d="M9.84-13.99L23.85-13.99 23.85-21Q23.85-22.44 23.3-23.72 22.75-25 21.8-25.95 20.85-26.9 19.57-27.45 18.29-28 16.85-28L16.85-28Q15.41-28 14.12-27.45 12.84-26.9 11.89-25.95 10.94-25 10.39-23.72 9.84-22.44 9.84-21L9.84-21 9.84-13.99ZM30.86-21L30.86 0 23.85 0 23.85-7.01 9.84-7.01 9.84 0 2.86 0 2.86-21Q2.86-23.9 3.96-26.45 5.05-29 6.95-30.91 8.84-32.81 11.39-33.91 13.94-35.01 16.85-35.01L16.85-35.01Q19.75-35.01 22.3-33.91 24.85-32.81 26.76-30.91 28.66-29 29.76-26.45 30.86-23.9 30.86-21L30.86-21ZM61.69-7.01L61.69 0 34.59 0 49.53-28 34.59-28 34.59-35.01 61.69-35.01 46.8-7.01 61.69-7.01Z" opacity="1" transform="matrix(1,0,0,1,0,0)" fill="#ffffff" class="wordmark-text-0" data-fill-palette-color="primary" id="text-0"></path></svg></g></svg></g></svg></g></svg></g></svg></g></svg></g></svg></g><path d="M254.629 44.879L254.629 1.567 10.563 1.567 10.563 245.633 254.629 245.633 254.629 202.321 241.513 202.321 241.513 232.517 23.679 232.517 23.679 14.683 241.513 14.683 241.513 44.879Z" fill="#ffffff" stroke="transparent" data-fill-palette-color="tertiary"></path></svg></g><defs></defs></svg><rect width="395.52" height="247.2" fill="none" stroke="none" visibility="hidden"></rect></g></svg></g></svg>